<?xml version="1.0" encoding="UTF-8"?>
<svg id="Layer_2" data-name="Layer 2" xmlns="http://www.w3.org/2000/svg" viewBox="0 0 184.55 160.03">
  <defs>
    <style>
      .cls-1 {
        fill: #231f20;
      }
    </style>
  </defs>
  <g id="Layer_1-2" data-name="Layer 1">
    <g>
      <g>
        <path class="cls-1" d="M96.02,160.03H18.17c-10.02,0-18.17-8.15-18.17-18.17V42.64c0-10.02,8.15-18.17,18.17-18.17h18.42c1.94,0,3.82-.82,5.14-2.24l15.48-16.68c3.27-3.53,7.91-5.55,12.73-5.55h23.64v11h-23.64c-1.76,0-3.47.74-4.67,2.04l-15.48,16.68c-3.4,3.66-8.21,5.76-13.2,5.76h-18.42c-3.95,0-7.17,3.22-7.17,7.17v99.22c0,3.95,3.22,7.17,7.17,7.17h77.85v11Z"/>
        <path class="cls-1" d="M166.38,160.03h-77.85v-11h77.85c3.95,0,7.17-3.22,7.17-7.17V42.64c0-3.95-3.22-7.17-7.17-7.17h-18.42c-4.99,0-9.8-2.1-13.2-5.76l-15.48-16.68c-1.2-1.29-2.9-2.04-4.67-2.04h-23.64V0h23.64c4.81,0,9.45,2.02,12.73,5.55l15.48,16.68c1.32,1.42,3.19,2.24,5.14,2.24h18.42c10.02,0,18.17,8.15,18.17,18.17v99.22c0,10.02-8.15,18.17-18.17,18.17Z"/>
      </g>
      <path class="cls-1" d="M92.28,136.86c-25.14,0-45.6-20.45-45.6-45.6s20.45-45.6,45.6-45.6,45.6,20.45,45.6,45.6-20.45,45.6-45.6,45.6ZM92.28,56.67c-19.08,0-34.6,15.52-34.6,34.6s15.52,34.6,34.6,34.6,34.6-15.52,34.6-34.6-15.52-34.6-34.6-34.6Z"/>
      <path class="cls-1" d="M38.56,52.88h-12.7c-3.04,0-5.5-2.46-5.5-5.5s2.46-5.5,5.5-5.5h12.7c3.04,0,5.5,2.46,5.5,5.5s-2.46,5.5-5.5,5.5Z"/>
    </g>
  </g>
</svg>